<svg xmlns="http://www.w3.org/2000/svg" viewBox="27.5 -2.5 943.98 1004.98">
<path stroke="black" fill="#47515E" stroke-width="1" d="M906.964, 207L913.927, 211.145L920.545, 215.727L926.8, 220.709L932.691, 226.073L938.182, 231.782L943.273, 237.836L947.964, 244.2L952.218, 250.873L956.018, 257.8L959.364, 264.964L962.236, 272.364L964.618, 279.982L966.491, 287.764L967.855, 295.709L968.691, 303.782L968.964, 311.982L968.964, 687.964L968.691, 696.164L967.855, 704.255L966.491, 712.2L964.618, 719.982L962.236, 727.6L959.364, 735L956.018, 742.164L952.218, 749.091L947.964, 755.745L943.273, 762.127L938.182, 768.182L932.691, 773.891L926.8, 779.255L920.545, 784.236L913.927, 788.818L906.964, 792.964L556.982, 984.964L550.473, 988.473L543.709, 991.527L536.745, 994.109L529.6, 996.218L522.327, 997.855L514.927, 999.018L507.473, 999.727L499.982, 999.964L492.491, 999.727L485.018, 999.018L477.582, 997.855L470.236, 996.218L462.964, 994.109L455.818, 991.527L448.818, 988.473L441.982, 984.964L92, 792.964L85.036, 788.818L78.418, 784.236L72.164, 779.255L66.273, 773.891L60.782, 768.182L55.691, 762.127L51, 755.745L46.745, 749.091L42.945, 742.164L39.6, 735L36.727, 727.6L34.345, 719.982L32.473, 712.2L31.109, 704.255L30.273, 696.164L30, 687.964L30, 311.982L30.273, 303.782L31.109, 295.709L32.473, 287.764L34.345, 279.982L36.727, 272.364L39.6, 264.964L42.945, 257.8L46.745, 250.873L51, 244.2L55.691, 237.836L60.782, 231.782L66.273, 226.073L72.164, 220.709L78.418, 215.727L85.036, 211.145L92, 207L441.982, 15L448.818, 11.491L455.782, 8.436L462.873, 5.855L470.073, 3.745L477.345, 2.109L484.691, 0.945L492.073, 0.236L499.473, 0L506.891, 0.236L514.273, 0.945L521.6, 2.109L528.891, 3.745L536.091, 5.855L543.182, 8.436L550.145, 11.491L556.982, 15L906.964, 207"/>
<path stroke="black" fill="#FFD400" stroke-width="1" d="M354.982, 142L357.527, 148.236L359.545, 154.564L361.036, 160.945L362.036, 167.364L362.527, 173.782L362.527, 180.182L362.055, 186.509L361.109, 192.745L359.709, 198.873L357.873, 204.836L355.582, 210.636L352.873, 216.236L349.745, 221.6L346.218, 226.709L342.291, 231.509L337.982, 236L336.364, 237.491L335.309, 238.236L333.982, 239L332.982, 240L329.073, 242.982L324.873, 245.873L320.473, 248.564L316, 250.982L312.127, 252.673L308.218, 254.127L304.273, 255.4L300.309, 256.455L296.327, 257.309L292.345, 257.964L284.345, 258.673L276.364, 258.618L268.491, 257.818L260.764, 256.255L253.236, 253.982L245.982, 251.018L239.018, 247.364L232.436, 243.036L226.273, 238.055L223.382, 235.327L220.6, 232.436L217.945, 229.4L215.455, 226.218L213.091, 222.873L210.909, 219.4L208.873, 215.764L207, 211.982L205.255, 209.127L203.782, 206.509L202.527, 204.091L201.491, 201.873L200.655, 199.782L199.964, 197.782L199, 193.982L336.982, 118L340.055, 120.455L342.618, 122.727L344.8, 124.982L346.745, 127.364L348.582, 130.091L350.491, 133.327L351.491, 135.182L352.582, 137.236L353.727, 139.491L354.982, 142"/>
<path stroke="black" fill="#90e9ea" stroke-width="1" d="M111, 241.982L163, 213.982L166.109, 221.618L167.909, 225.655L170, 229.982L171.655, 233.564L173.491, 236.855L175.327, 239.982L176.982, 242.982L135, 276.982L132.273, 279.836L130.164, 283.055L128.691, 286.545L127.873, 290.236L127.764, 294.018L128.382, 297.8L128.982, 299.655L129.782, 301.491L130.782, 303.273L132, 304.982L133.582, 306.764L135.327, 308.345L137.236, 309.709L139.236, 310.873L141.345, 311.782L143.527, 312.436L145.745, 312.855L147.982, 312.982L151.545, 312.764L154.745, 311.982L156.2, 311.327L157.545, 310.455L158.818, 309.345L159.982, 307.982L203.982, 273L207.909, 276L212.109, 279L220.982, 284.982L213.982, 304.982L213.345, 306.891L212.945, 308.818L212.745, 310.764L212.764, 312.709L213.382, 316.564L214.727, 320.236L216.745, 323.636L219.327, 326.636L222.436, 329.127L224.164, 330.145L225.982, 330.982L227.636, 331.564L229.491, 331.855L231.327, 331.964L232.982, 331.982L235.982, 331.764L238.909, 331.073L241.727, 329.982L244.364, 328.491L246.764, 326.618L248.873, 324.4L250.636, 321.836L251.982, 318.982L258.982, 298.982L269.6, 300.364L275.145, 300.818L280.982, 300.982L282.982, 300.982L294.982, 363.982L296.036, 367.255L297.673, 370.273L299.8, 373L302.345, 375.364L305.218, 377.291L308.327, 378.745L311.618, 379.673L314.982, 379.982L316.6, 379.855L317.655, 379.564L318.982, 378.982L320.982, 378.509L322.909, 377.836L324.709, 376.964L326.4, 375.945L329.4, 373.418L331.855, 370.364L333.691, 366.891L334.873, 363.091L335.309, 359.091L335.236, 357.036L334.982, 354.982L322.982, 292.982L325.382, 292.073L327.982, 290.982L330.564, 289.891L332.982, 288.982L338.982, 285.855L341.982, 284.073L344.982, 281.982L367.982, 306.982L369.564, 308.4L371.309, 309.618L373.164, 310.636L375.091, 311.491L379.091, 312.618L381.055, 312.891L382.982, 312.982L386.564, 312.636L389.982, 311.618L393.382, 310.036L396.982, 307.982L399.636, 304.764L401.636, 301.2L402.909, 297.4L403.473, 293.491L403.291, 289.564L402.891, 287.655L402.309, 285.764L401.545, 283.945L400.564, 282.2L399.364, 280.545L397.982, 278.982L375.982, 254.982L384.982, 242.982L446.964, 261.982L448.473, 262.564L449.964, 262.873L452.964, 262.982L456.255, 262.709L459.309, 261.927L462.145, 260.673L464.727, 258.982L467.018, 256.927L469, 254.545L470.655, 251.891L471.964, 248.982L472.6, 247.091L473.018, 245.164L473.2, 243.218L473.182, 241.291L472.945, 239.364L472.509, 237.473L471.091, 233.873L468.982, 230.582L467.673, 229.109L466.2, 227.764L464.6, 226.545L462.855, 225.509L460.982, 224.655L458.964, 223.982L399.982, 205L401.291, 198.073L402.236, 190.873L402.8, 183.473L402.982, 176L439.982, 169L442, 168.509L443.909, 167.836L445.709, 166.982L447.4, 165.945L450.4, 163.418L452.855, 160.364L454.691, 156.891L455.873, 153.109L456.327, 149.109L456.255, 147.055L455.982, 145L455.509, 142.982L454.818, 141.073L453.964, 139.255L452.927, 137.582L450.4, 134.564L447.364, 132.127L443.873, 130.273L440.091, 129.109L436.091, 128.655L434.036, 128.727L431.982, 129L395.982, 136L395.055, 133.145L393.855, 130.491L392.473, 127.836L390.982, 125L387.2, 117.127L385.255, 113.473L383.236, 110L381.127, 106.709L378.891, 103.618L376.527, 100.709L373.982, 98L460.982, 50L465.855, 47.564L470.727, 45.491L475.6, 43.764L480.491, 42.382L485.364, 41.309L490.236, 40.582L495.109, 40.145L499.982, 40L504.855, 40.145L509.709, 40.582L514.545, 41.309L519.364, 42.382L524.109, 43.764L528.818, 45.491L533.436, 47.564L537.982, 50L886.964, 242L891.727, 244.764L896.236, 247.836L900.491, 251.164L904.491, 254.764L908.236, 258.582L911.673, 262.636L914.855, 266.909L917.709, 271.364L920.273, 276L922.527, 280.782L924.455, 285.727L926.055, 290.782L927.309, 295.964L928.218, 301.236L928.782, 306.582L928.964, 311.982L928.964, 593.982L922.891, 593.164L917.036, 592.182L911.309, 591.018L905.673, 589.618L900.055, 587.945L894.418, 585.945L888.709, 583.6L882.836, 580.855L876.782, 577.673L870.455, 574.018L863.836, 569.873L856.818, 565.145L849.4, 559.836L845.509, 556.964L841.491, 553.909L837.327, 550.691L833.018, 547.291L828.582, 543.727L823.964, 539.982L815.964, 532.982L811.364, 529.364L806.564, 526L801.6, 522.909L796.455, 520.073L791.164, 517.509L785.745, 515.218L780.218, 513.218L774.6, 511.473L768.891, 510.036L763.109, 508.855L757.291, 507.982L751.418, 507.382L745.545, 507.091L739.673, 507.091L733.8, 507.382L727.964, 507.982L722.382, 509.073L716.873, 510.455L711.455, 512.145L706.145, 514.127L700.945, 516.382L695.855, 518.927L690.909, 521.764L686.091, 524.855L681.436, 528.218L676.945, 531.855L672.636, 535.745L668.491, 539.909L664.545, 544.309L660.8, 548.945L657.273, 553.855L653.982, 558.982L652.655, 561.364L651.745, 563.945L651.218, 566.673L651.109, 569.473L651.4, 572.273L652.145, 575.018L653.327, 577.6L654.982, 579.982L656.982, 582.036L659.218, 583.709L661.655, 584.982L664.218, 585.855L666.891, 586.291L669.6, 586.309L672.309, 585.873L674.982, 584.982L679, 583.636L682.8, 582.6L686.4, 581.855L689.782, 581.364L692.964, 581.127L695.927, 581.091L698.673, 581.255L701.218, 581.6L703.564, 582.091L705.673, 582.727L707.582, 583.455L709.291, 584.273L710.782, 585.164L712.055, 586.091L713.127, 587.036L713.982, 587.982L714.745, 590.309L714.836, 592.782L714.345, 595.309L713.345, 597.855L711.927, 600.345L710.182, 602.745L708.164, 604.982L705.982, 606.982L702.255, 610.036L697.891, 612.836L692.909, 615.364L687.345, 617.655L681.218, 619.709L674.582, 621.545L667.455, 623.145L659.873, 624.527L651.855, 625.709L643.473, 626.691L634.727, 627.491L625.655, 628.091L616.309, 628.527L606.709, 628.8L596.873, 628.891L586.855, 628.855L566.382, 628.345L545.564, 627.327L524.636, 625.855L503.909, 624L483.6, 621.818L473.691, 620.618L464, 619.382L454.545, 618.091L445.382, 616.745L436.509, 615.382L427.982, 613.982L426.636, 613.4L425.491, 613.109L424.327, 613L422.982, 612.982L414.345, 611.473L406.364, 609.982L398.945, 608.473L391.982, 606.982L384.255, 605.309L376.091, 603.655L367.509, 602.018L358.564, 600.4L349.273, 598.8L339.655, 597.218L329.764, 595.655L319.618, 594.109L309.236, 592.564L298.673, 591.036L277.109, 588L255.127, 584.982L233, 581.982L209.709, 578.945L186.582, 575.818L163.927, 572.618L152.909, 571L142.127, 569.364L131.636, 567.709L121.491, 566.055L111.709, 564.382L102.364, 562.709L93.473, 561.036L85.091, 559.364L77.255, 557.673L70, 555.982L70, 312L70.182, 306.582L70.691, 301.236L71.564, 295.964L72.745, 290.8L74.273, 285.727L76.127, 280.8L78.273, 276L80.745, 271.364L83.527, 266.909L86.6, 262.655L89.964, 258.6L93.618, 254.764L97.564, 251.164L101.782, 247.836L106.255, 244.764L111, 242L111, 241.982"/>
<path stroke="black" fill="#F7C59F" stroke-width="1" d="M537.982, 949.964L533.418, 952.255L528.764, 954.236L524.018, 955.909L519.2, 957.273L514.327, 958.345L509.4, 959.109L504.455, 959.564L499.473, 959.709L494.509, 959.564L489.564, 959.109L484.636, 958.345L479.764, 957.273L474.945, 955.909L470.2, 954.236L465.545, 952.255L460.982, 949.964L111, 757.964L106.418, 755.2L102.055, 752.127L97.927, 748.8L94.055, 745.2L90.418, 741.364L87.036, 737.309L83.945, 733.055L81.127, 728.6L78.6, 723.964L76.382, 719.164L74.473, 714.236L72.891, 709.182L71.636, 704L70.745, 698.727L70.182, 693.382L70, 687.964L70, 592.982L77.527, 594.655L85.491, 596.309L93.836, 597.945L102.564, 599.545L111.636, 601.145L121.055, 602.727L130.764, 604.291L140.745, 605.855L151, 607.4L161.491, 608.927L183.055, 611.964L205.291, 614.982L228, 617.982L264.709, 622.655L282.8, 625.091L300.491, 627.6L317.618, 630.145L325.927, 631.436L334.018, 632.745L341.891, 634.036L349.527, 635.345L356.909, 636.655L363.982, 637.982L358.473, 641.818L353.182, 645.818L348.164, 649.964L343.491, 654.218L339.182, 658.582L335.309, 663L331.891, 667.473L328.982, 671.982L327.255, 675.109L325.782, 678.164L324.564, 681.109L323.582, 683.982L322.818, 686.745L322.273, 689.418L321.927, 691.982L321.745, 694.473L321.855, 699.164L322.527, 703.473L323.6, 707.418L324.982, 710.982L326.436, 713.873L328.109, 716.618L330, 719.182L332.091, 721.582L334.382, 723.836L336.818, 725.964L342.109, 729.855L347.836, 733.309L353.818, 736.418L359.927, 739.291L365.982, 741.964L372.073, 744.4L377.855, 747.091L380.455, 748.527L382.727, 749.982L384.6, 751.473L385.982, 752.964L388.382, 755.6L390.4, 758.309L392.073, 761.164L393.491, 764.218L394.709, 767.564L395.836, 771.255L396.891, 775.364L397.982, 779.964L398.982, 784.964L400.691, 792L402.636, 798.673L404.782, 805L407.145, 810.982L409.709, 816.636L412.473, 821.982L415.436, 827L418.564, 831.709L421.855, 836.145L425.327, 840.273L428.945, 844.145L432.709, 847.745L436.618, 851.109L440.655, 854.2L444.818, 857.073L449.109, 859.709L453.491, 862.145L457.982, 864.364L462.564, 866.382L467.236, 868.2L476.782, 871.345L486.582, 873.836L496.564, 875.764L506.673, 877.218L516.836, 878.255L526.982, 878.964L535, 879.582L542.564, 879.964L549.673, 880.164L556.345, 880.218L562.618, 880.182L568.455, 880.091L573.909, 880L578.982, 879.964L584.327, 879.8L589.164, 879.673L593.527, 879.636L597.473, 879.709L601.036, 879.927L604.291, 880.309L607.255, 880.891L609.982, 881.709L612.509, 882.782L614.909, 884.145L617.218, 885.818L619.473, 887.836L621.727, 890.236L624.036, 893.036L626.436, 896.273L628.982, 899.964L537.982, 949.964"/>
<path stroke="black" fill="#476789" stroke-width="1" d="M887.964, 757.964L659.982, 882.964L657.564, 879.418L655.182, 876.091L652.855, 872.964L650.545, 870.055L646.018, 864.8L641.545, 860.273L637.091, 856.436L632.618, 853.218L628.109, 850.582L623.473, 848.473L618.709, 846.818L613.764, 845.582L608.6, 844.709L603.164, 844.145L597.436, 843.855L591.345, 843.745L584.873, 843.818L577.982, 843.964L573, 844L567.8, 844.091L562.291, 844.182L556.473, 844.218L550.291, 844.164L543.673, 843.964L536.582, 843.582L528.982, 842.964L523.455, 842.545L518.127, 842.055L513.018, 841.455L508.091, 840.782L503.345, 840.018L498.8, 839.145L494.418, 838.2L490.236, 837.145L486.218, 835.982L482.382, 834.727L475.2, 831.873L468.655, 828.582L462.727, 824.836L457.4, 820.618L452.618, 815.891L448.364, 810.636L444.618, 804.855L441.327, 798.527L438.473, 791.6L436.036, 784.091L433.982, 775.964L432.982, 770.964L431.8, 765.345L430.4, 759.727L428.709, 754.091L426.618, 748.473L424, 742.855L420.745, 737.218L416.782, 731.6L414.491, 728.782L411.982, 725.964L408.8, 723.109L405.309, 720.491L401.564, 718.073L397.618, 715.855L389.345, 711.764L380.982, 707.964L378.073, 706.709L374.727, 705.236L367.618, 701.855L364.309, 700.055L361.436, 698.273L360.255, 697.4L359.273, 696.545L358.509, 695.745L357.982, 694.964L358.018, 694.036L358.236, 692.727L358.836, 691.036L359.982, 688.964L362.509, 685.4L365.564, 681.836L369.055, 678.291L372.909, 674.818L377.073, 671.418L381.455, 668.127L385.982, 664.964L390.618, 661.964L395.236, 659.164L399.818, 656.564L404.255, 654.218L408.509, 652.127L412.455, 650.327L416.073, 648.855L419.273, 647.727L421.982, 646.982L428.691, 648.091L435.691, 649.218L442.945, 650.327L450.436, 651.418L458.145, 652.473L466.055, 653.509L482.364, 655.473L499.182, 657.255L516.345, 658.782L533.673, 660.036L550.982, 660.982L559.055, 661.545L566.855, 661.855L581.982, 661.982L595.909, 662.036L609.218, 661.836L621.891, 661.364L633.927, 660.655L645.345, 659.655L656.127, 658.4L666.309, 656.891L675.855, 655.091L684.764, 653.036L693.073, 650.709L700.764, 648.109L707.836, 645.236L714.291, 642.091L720.127, 638.673L725.345, 634.964L729.964, 630.982L733.564, 627.345L736.8, 623.6L739.709, 619.727L742.273, 615.782L744.491, 611.745L746.345, 607.655L747.836, 603.509L748.964, 599.345L749.709, 595.182L750.091, 591L750.073, 586.855L749.655, 582.745L748.855, 578.691L747.636, 574.691L746.018, 570.782L743.964, 566.982L741.582, 563.655L738.891, 560.455L735.909, 557.436L732.6, 554.6L728.964, 552L724.982, 549.691L720.655, 547.655L715.964, 545.982L720.618, 543.927L725.345, 542.345L729.891, 541.345L732, 541.073L733.964, 540.982L737.909, 540.527L741.873, 540.273L745.855, 540.236L749.818, 540.4L753.764, 540.782L757.691, 541.345L761.6, 542.127L765.473, 543.109L769.291, 544.291L773.055, 545.655L776.745, 547.236L780.382, 549L783.927, 550.964L787.364, 553.109L790.727, 555.455L793.964, 557.982L801.964, 564.982L806.945, 569.109L811.782, 573.036L816.473, 576.8L821.036, 580.4L825.473, 583.818L829.8, 587.073L838.127, 593.091L846.091, 598.491L853.745, 603.309L861.182, 607.582L868.473, 611.345L875.655, 614.636L882.8, 617.473L890, 619.891L897.309, 621.927L904.782, 623.618L912.509, 625L920.545, 626.109L928.964, 626.964L928.964, 687.964L928.782, 693.382L928.273, 698.727L927.4, 704L926.218, 709.164L924.691, 714.236L922.855, 719.164L920.691, 723.964L918.218, 728.6L915.436, 733.055L912.364, 737.309L909, 741.364L905.345, 745.2L901.4, 748.8L897.2, 752.127L892.709, 755.2L887.964, 757.964"/>
<path stroke="black" fill="#5D83AC" stroke-width="1" d="M813.982, 642L816, 642.473L817.909, 643.109L821.4, 644.891L824.418, 647.255L826.855, 650.127L828.709, 653.418L829.873, 657.055L830.327, 660.945L830.255, 662.945L829.982, 665L828.564, 672.236L826.745, 679.127L824.545, 685.691L822, 691.927L819.127, 697.855L815.927, 703.473L812.436, 708.764L808.673, 713.782L804.655, 718.491L800.418, 722.927L795.964, 727.091L791.309, 730.982L786.491, 734.618L781.527, 737.982L776.436, 741.109L771.236, 744L765.945, 746.655L760.582, 749.073L755.182, 751.273L749.764, 753.255L744.327, 755.036L738.891, 756.618L728.182, 759.218L722.927, 760.236L717.764, 761.091L712.727, 761.782L707.818, 762.309L703.073, 762.691L698.509, 762.927L694.145, 763.036L690, 763L507, 760L504.964, 759.891L502.982, 759.582L501.073, 759.091L499.236, 758.418L495.836, 756.564L492.873, 754.127L490.418, 751.164L488.582, 747.764L487.909, 745.927L487.4, 744.018L487.109, 742.036L487, 740L487.109, 737.964L487.4, 735.982L487.909, 734.073L488.582, 732.236L490.418, 728.836L492.873, 725.873L495.836, 723.418L499.236, 721.582L501.073, 720.909L502.982, 720.4L504.964, 720.109L507, 720L690, 723L690.6, 723L691.655, 722.982L693.127, 722.945L694.982, 722.873L697.2, 722.745L699.764, 722.564L702.618, 722.309L705.764, 721.982L709.145, 721.545L712.745, 721.018L716.527, 720.364L720.491, 719.564L728.764, 717.545L737.364, 714.873L741.709, 713.255L746.036, 711.436L750.327, 709.382L754.564, 707.127L758.709, 704.618L762.727, 701.873L766.6, 698.855L770.291, 695.582L773.764, 692L777.018, 688.127L780, 683.945L782.691, 679.455L785.073, 674.618L787.091, 669.436L788.745, 663.909L789.982, 658L790.291, 655.982L790.818, 654.073L791.545, 652.273L792.473, 650.582L793.582, 649.018L794.855, 647.582L796.291, 646.273L797.855, 645.127L799.564, 644.127L801.382, 643.291L803.309, 642.618L805.309, 642.109L807.4, 641.8L809.545, 641.655L811.745, 641.727L813.982, 642"/>
<path stroke="black" fill="#5D83AC" stroke-width="1" d="M721, 790L723.036, 790.109L725.018, 790.4L726.927, 790.909L728.764, 791.582L732.164, 793.418L735.127, 795.873L737.564, 798.836L739.418, 802.236L740.091, 804.073L740.582, 805.982L740.891, 807.964L741, 810L740.891, 812.036L740.582, 814.018L740.091, 815.927L739.418, 817.764L737.564, 821.164L735.127, 824.127L732.164, 826.564L728.764, 828.418L726.927, 829.091L725.018, 829.582L723.036, 829.891L721, 830L668, 829L665.964, 828.891L663.982, 828.6L662.073, 828.091L660.236, 827.418L656.836, 825.564L653.873, 823.127L651.418, 820.164L649.582, 816.764L648.909, 814.927L648.4, 813.018L648.109, 811.036L648, 809L648.109, 806.964L648.4, 804.982L648.909, 803.073L649.582, 801.236L651.418, 797.836L653.873, 794.873L656.836, 792.436L660.236, 790.582L662.073, 789.909L663.982, 789.4L665.964, 789.109L668, 789L721, 790"/>
</svg>
