<?xml version="1.0" standalone="no"?>
<!DOCTYPE svg PUBLIC "-//W3C//DTD SVG 20010904//EN"
 "http://www.w3.org/TR/2001/REC-SVG-20010904/DTD/svg10.dtd">
<svg version="1.0" xmlns="http://www.w3.org/2000/svg"
 width="48.000000pt" height="48.000000pt" viewBox="0 0 48.000000 48.000000"
 preserveAspectRatio="xMidYMid meet">

<g transform="translate(0.000000,48.000000) scale(0.100000,-0.100000)"
fill="#ffffff" stroke="none">
<path d="M17 462 c-15 -16 -17 -47 -17 -224 0 -186 2 -206 18 -221 16 -15 47
-17 224 -17 186 0 206 2 221 18 15 16 17 47 17 224 0 186 -2 206 -18 221 -16
15 -47 17 -224 17 -186 0 -206 -2 -221 -18z m71 -217 c3 -112 -5 -131 -43 -95
-22 20 -25 32 -25 89 0 53 4 69 22 88 12 13 27 22 32 20 7 -2 12 -44 14 -102z
m109 83 c13 -12 23 -32 23 -45 0 -20 -5 -23 -35 -23 -31 0 -35 3 -35 25 0 20
-5 25 -25 25 -18 0 -25 5 -25 20 0 29 65 28 97 -2z m131 -71 l3 -87 29 0 c23
0 30 -5 30 -20 0 -17 -7 -20 -42 -20 -66 0 -88 27 -88 109 0 53 4 69 22 88 12
13 27 22 32 20 6 -2 12 -41 14 -90z m114 76 c21 -19 24 -39 6 -45 -18 -6 -58
3 -58 13 0 5 -11 9 -25 9 -18 0 -25 5 -25 20 0 17 7 20 42 20 24 0 49 -7 60
-17z m18 -144 c0 -60 0 -60 -27 -57 -24 3 -28 8 -31 41 -2 24 -8 37 -18 37 -8
0 -14 9 -14 20 0 17 7 20 45 20 l45 0 0 -61z m-240 -1 c0 -27 -43 -58 -82 -58
-31 0 -38 3 -38 20 0 15 7 20 25 20 16 0 25 6 25 15 0 10 11 15 35 15 20 0 35
-5 35 -12z"/>
</g>
</svg>